<?xml version="1.0" encoding="utf-8"?>
<!-- Generator: Adobe Illustrator 19.2.0, SVG Export Plug-In . SVG Version: 6.00 Build 0)  -->
<svg version="1.1" id="Layer_1" xmlns="http://www.w3.org/2000/svg" xmlns:xlink="http://www.w3.org/1999/xlink" x="0px" y="0px"
	 viewBox="0 0 630.22 286.75" style="enable-background:new 0 0 630.22 286.75;" xml:space="preserve">
<g>
	<g>
		<path d="M412.6,247.27l-2.04-51.35l-7.92,51.35h-3.43l-7.67-51.35l-1.96,51.35h-2.29l2.29-57.23h3.18l8.16,53.64l8.33-53.64h3.43
			l2.2,57.23H412.6z"/>
	</g>
	<g>
		<path d="M460.36,236.49c0,5.8-3.35,11.43-10.37,11.43c-6.45,0-10.37-5.14-10.37-11.51v-46.29h2.29v46.29
			c0,4.57,2.37,9.39,8.08,9.39c5.96,0,8.16-4.24,8.16-9.31v-46.37h2.2V236.49z"/>
	</g>
	<g>
		<path d="M485.1,236.41v-4.9h2.2v4.9c-0.16,4.9,2.61,9.39,8.33,9.39c5.39,0,8.08-4,8.08-9.23c0-1.63,0-1.96,0-4
			c0-4.73-4.57-6.53-9.23-9.14c-4.65-2.61-9.31-5.63-9.39-10.69c0-2.61,0-8.74,0-11.84c0-6.29,3.18-11.18,9.8-11.18
			c6.04,0,9.47,4.74,9.47,11.02v6.78h-2.2v-6.69c0-4.9-2.04-8.9-7.27-8.9c-4.41,0-7.51,2.94-7.51,8.98c0,3.02,0,9.06,0,11.67
			c0.24,4.57,3.84,6.53,7.84,8.82c5.06,2.86,10.69,5.47,10.69,10.86v4.33c0,6.12-3.27,11.35-10.29,11.35
			C489.42,247.92,485.01,243.35,485.1,236.41z"/>
	</g>
	<g>
		<path d="M530.49,247.27v-57.15h2.29v57.15H530.49z"/>
	</g>
	<g>
		<path d="M557.75,236.33c0,0.57,0-9.63,0-34.94c0-6.37,4.08-11.59,10.45-11.59c6.29,0,10.37,5.14,10.37,11.51v4.57h-2.12
			l-0.08-4.49c0-4.98-2.69-9.39-8-9.39c-4.9,0-8.33,3.51-8.33,9.39c0,2.61,0,2.69,0,34.94c0,4.65,2.78,9.31,8.33,9.31
			c5.47,0,8-4.33,8-9.23v-4.16h2.2v4.16c0,5.63-3.18,11.43-10.2,11.43C561.67,247.84,557.75,242.69,557.75,236.33z"/>
	</g>
</g>
<path d="M86.02,170.1c-10.25,0-18.91-3.54-25.99-10.63c-7.18-7.18-10.77-15.89-10.77-26.14c0-10.15,3.54-18.76,10.63-25.85
	c7.18-7.27,15.89-10.91,26.14-10.91h18.38V59.8h18.38V170.1H86.02z M104.4,151.72v-36.76H86.02c-5.08,0-9.43,1.82-13.07,5.46
	c-3.54,3.64-5.31,7.95-5.31,12.92c0,5.08,1.77,9.43,5.31,13.07c3.64,3.54,7.99,5.31,13.07,5.31H104.4z"/>
<path d="M144.1,170.1c0-10.15,3.59-18.81,10.77-25.99c7.08-7.18,15.75-10.77,25.99-10.77h18.38c0-4.98-1.82-9.29-5.46-12.92
	c-3.64-3.64-7.95-5.46-12.92-5.46h-18.38V96.57h18.38c10.15,0,18.81,3.64,25.99,10.91c7.18,7.09,10.77,15.7,10.77,25.85v36.76
	h-18.38v-18.38h-18.38c-5.08,0-9.43,1.82-13.07,5.46c-3.54,3.64-5.31,7.95-5.31,12.92H144.1z"/>
<path d="M238.96,170.1V96.57h18.38v4.88c5.46-3.25,11.58-4.88,18.38-4.88c10.15,0,18.81,3.64,25.99,10.91
	c7.18,7.09,10.77,15.7,10.77,25.85v36.76H294.1v-36.76c0-4.98-1.82-9.29-5.46-12.92c-3.64-3.64-7.95-5.46-12.92-5.46
	c-5.08,0-9.43,1.82-13.07,5.46c-3.54,3.64-5.31,7.95-5.31,12.92v36.76H238.96z"/>
<path d="M330.87,188.48c4.98,0,9.29-1.82,12.92-5.46c3.64-3.64,5.46-7.95,5.46-12.92v-55.15h-18.38V96.57h36.76v73.53
	c0,10.15-3.64,18.81-10.91,25.99c-7.09,7.18-15.7,10.77-25.85,10.77V188.48z"/>
<path d="M389.67,170.1v-36.76c0-10.15,3.59-18.81,10.77-25.99c7.08-7.18,15.75-10.77,25.99-10.77c10.15,0,18.81,3.64,25.99,10.91
	c7.18,7.09,10.77,15.7,10.77,25.85v18.38h-55.15v18.38H389.67z M444.82,133.33c0-4.98-1.82-9.29-5.46-12.92
	c-3.64-3.64-7.95-5.46-12.92-5.46c-5.08,0-9.43,1.82-13.07,5.46c-3.54,3.64-5.31,7.95-5.31,12.92H444.82z"/>
<path d="M485.52,170.1V59.8h18.38V170.1H485.52z"/>
</svg>
