<?xml version="1.0" encoding="utf-8"?>
<!-- Generator: Adobe Illustrator 19.2.0, SVG Export Plug-In . SVG Version: 6.00 Build 0)  -->
<svg version="1.1" id="Layer_1" xmlns="http://www.w3.org/2000/svg" xmlns:xlink="http://www.w3.org/1999/xlink" x="0px" y="0px"
	 viewBox="0 0 630.22 286.75" style="enable-background:new 0 0 630.22 286.75;" xml:space="preserve">
<g>
	<g>
		<path d="M330.03,219.59c0,5.15-3.36,7.22-6.58,7.22h-10.87v-50.05h8.22c5.15,0,9.29,3.72,9.29,9.51l-0.07,14.8
			c0,3.22-1.79,6.36-4.58,8.22c1.07,0.29,1.93,0.79,2.65,1.5c1.22,1.22,1.93,3,1.93,5.15V219.59z M314.58,178.69v30.17h6.36
			c3.07,0,7.22-3,7.22-7.86v-14.73c0-4.36-2.79-7.51-7.36-7.58C319.73,178.69,315.3,178.69,314.58,178.69z M328.17,215.94
			c0-1.57-0.57-2.93-1.43-3.79c-1-0.93-2.43-1.43-4.36-1.43c-1,0-7.29,0-7.79,0v14.23h8.87c4.22,0,4.72-3.79,4.72-5.36V215.94z"/>
		<path d="M372.71,226.81h-2v-8.29c0-3.15-2.07-5.22-5.51-5.22h-8.22v13.51h-2v-50.05h8.37c4.22,0,9.08,2.57,9.08,9.65v17.23
			c0,3.15-1.5,6.22-4.79,8.22c3.22,0.79,5.08,3.5,5.08,6.65V226.81z M356.98,211.44h6.36c3.07,0,7.15-2.79,7.15-7.79v-17.23
			c0-4.79-2.86-7.79-7.15-7.79h-6.36V211.44z"/>
		<path d="M409.81,213.01h-10.22l-2.07,13.8h-2l7.72-50.05h2.79l7.94,50.05h-2L409.81,213.01z M409.53,211.08l-4.86-31.39
			l-4.79,31.39H409.53z"/>
		<path d="M456.64,176.76v50.05h-1.93l-15.09-43.97v43.97h-2v-50.05h2l15.09,44.47v-44.47H456.64z"/>
		<path d="M500.33,217.45c0,9.51-7.29,9.37-9.51,9.37h-8.58v-50.05h8.58c4.72,0,9.51,0.64,9.51,9.58V217.45z M498.4,186.34
			c-0.14-7.22-3.29-7.72-7.58-7.72h-6.58v46.19c6.58,0,6.58,0,6.58,0c3.5,0,7.58-0.57,7.58-7.36V186.34z"/>
		<path d="M525.35,226.81v-50.05h2v50.05H525.35z"/>
		<path d="M571.96,176.76v50.05h-1.93l-15.09-43.97v43.97h-2v-50.05h2l15.09,44.47v-44.47H571.96z"/>
		<path d="M614.93,210.94v6.43c0,4.93-3.29,9.87-8.94,9.87c-5.43,0-9.15-4.36-9.15-9.94v-30.67c0-5.58,3.36-10.08,9.01-10.08
			c5.29,0,9.15,4.15,9.15,10.01v4h-1.86v-4c0-4.5-2.65-8.15-7.22-8.15c-4.29,0-7.08,3.36-7.08,8.22c0,1.57,0,3.22,0,30.67
			c0,4.08,2.5,8.01,7.15,8.01c4.29,0,7.01-3.65,7.01-7.94v-4.65h-7.51v-1.79H614.93z"/>
	</g>
</g>
<path d="M46.82,156.52c-8.97,0-16.55-3.1-22.75-9.3c-6.29-6.29-9.43-13.91-9.43-22.88c0-8.88,3.1-16.42,9.3-22.63
	c6.29-6.37,13.91-9.55,22.88-9.55h16.09V59.98H79v96.54H46.82z M62.91,140.43v-32.18H46.82c-4.44,0-8.26,1.59-11.44,4.78
	c-3.1,3.19-4.65,6.96-4.65,11.31c0,4.44,1.55,8.26,4.65,11.44c3.18,3.1,7,4.65,11.44,4.65H62.91z"/>
<path d="M97.66,156.52c0-8.88,3.14-16.47,9.43-22.75c6.2-6.29,13.78-9.43,22.75-9.43h16.09c0-4.36-1.59-8.13-4.78-11.31
	c-3.19-3.18-6.96-4.78-11.31-4.78h-16.09V92.16h16.09c8.88,0,16.47,3.19,22.75,9.55c6.29,6.2,9.43,13.74,9.43,22.63v32.18h-16.09
	v-16.09h-16.09c-4.44,0-8.26,1.59-11.44,4.78c-3.1,3.19-4.65,6.96-4.65,11.31H97.66z"/>
<path d="M180.69,156.52V92.16h16.09v4.27c4.78-2.85,10.14-4.27,16.09-4.27c8.88,0,16.47,3.19,22.75,9.55
	c6.29,6.2,9.43,13.74,9.43,22.63v32.18h-16.09v-32.18c0-4.36-1.59-8.13-4.78-11.31c-3.19-3.18-6.96-4.78-11.31-4.78
	c-4.44,0-8.26,1.59-11.44,4.78c-3.1,3.19-4.65,6.96-4.65,11.31v32.18H180.69z"/>
<path d="M261.14,172.61c4.36,0,8.13-1.59,11.31-4.78c3.18-3.19,4.78-6.96,4.78-11.31v-48.27h-16.09V92.16h32.18v64.36
	c0,8.88-3.19,16.47-9.55,22.75c-6.2,6.29-13.74,9.43-22.63,9.43V172.61z"/>
<path d="M312.61,156.52v-32.18c0-8.88,3.14-16.47,9.43-22.75c6.2-6.29,13.78-9.43,22.75-9.43c8.88,0,16.47,3.19,22.75,9.55
	c6.29,6.2,9.43,13.74,9.43,22.63v16.09H328.7v16.09H312.61z M360.88,124.34c0-4.36-1.59-8.13-4.78-11.31
	c-3.19-3.18-6.96-4.78-11.31-4.78c-4.44,0-8.26,1.59-11.44,4.78c-3.1,3.19-4.65,6.96-4.65,11.31H360.88z"/>
<path d="M396.61,156.52V59.98h16.09v96.54H396.61z"/>
</svg>
